<?xml version="1.0" encoding="UTF-8" standalone="no"?>
<!-- Created with Inkscape (http://www.inkscape.org/) -->

<svg
   xmlns:dc="http://purl.org/dc/elements/1.1/"
   xmlns:cc="http://creativecommons.org/ns#"
   xmlns:rdf="http://www.w3.org/1999/02/22-rdf-syntax-ns#"
   xmlns:svg="http://www.w3.org/2000/svg"
   xmlns="http://www.w3.org/2000/svg"
   xmlns:sodipodi="http://sodipodi.sourceforge.net/DTD/sodipodi-0.dtd"
   xmlns:inkscape="http://www.inkscape.org/namespaces/inkscape"
   id="svg2"
   version="1.1"
   inkscape:version="0.91 r13725"
   width="115.2"
   height="43.200001"
   viewBox="0 0 115.2 43.200001"
   sodipodi:docname="signature.svg">
  <metadata
     id="metadata8">
    <rdf:RDF>
      <cc:Work
         rdf:about="">
        <dc:format>image/svg+xml</dc:format>
        <dc:type
           rdf:resource="http://purl.org/dc/dcmitype/StillImage" />
        <dc:title></dc:title>
      </cc:Work>
    </rdf:RDF>
  </metadata>
  <defs
     id="defs6" />
  <sodipodi:namedview
     pagecolor="#ffffff"
     bordercolor="#666666"
     borderopacity="1"
     objecttolerance="10"
     gridtolerance="10"
     guidetolerance="10"
     inkscape:pageopacity="0"
     inkscape:pageshadow="2"
     inkscape:window-width="640"
     inkscape:window-height="480"
     id="namedview4"
     showgrid="false"
     inkscape:zoom="2.9427084"
     inkscape:cx="57.599998"
     inkscape:cy="21.6"
     inkscape:window-x="0"
     inkscape:window-y="0"
     inkscape:window-maximized="0"
     inkscape:current-layer="svg2" />
  <path
     style="fill:#000000"
     d="m 67.2,36.439447 c 0,-0.418305 0.195135,-1.059555 0.433635,-1.425 0.2385,-0.365445 0.787386,-1.946946 1.219749,-3.514446 0.43236,-1.5675 0.994023,-3.431952 1.248138,-4.143227 0.621201,-1.738771 0.360786,-1.848845 -0.947655,-0.400557 -2.769462,3.065462 -6.071826,3.548879 -8.629857,1.263279 -1.280607,-1.144221 -1.234269,-2.151561 0.285057,-6.196953 0.675987,-1.799898 1.430421,-3.880043 1.67652,-4.622543 0.246096,-0.7425 0.792828,-2.26125 1.214958,-3.375 0.42213,-1.11375 0.721731,-2.025 0.665784,-2.025 -0.204558,0 -4.280061,4.993201 -5.264559,6.45 -0.557532,0.825 -1.596012,2.221126 -2.307732,3.102501 -1.556604,1.927656 -1.588962,2.371487 -0.244038,3.3475 2.095737,1.520879 0.934425,5.297679 -2.1,6.829596 -2.86785,1.447821 -5.233974,1.399626 -7.262934,-0.147939 -0.980511,-0.74787 -1.041462,-0.89136 -0.902463,-2.124551 0.329091,-2.91967 3.450882,-5.937978 6.323025,-6.113421 1.249041,-0.0763 2.141268,-1.007801 6.483165,-6.768567 C 60.054636,15.296304 61.890468,12.9675 63.170412,11.4 64.450359,9.8325002 65.821383,7.8075002 66.217128,6.9000002 66.612876,5.9925001 67.063419,5.0155819 67.218336,4.7290708 67.37325,4.4425597 67.5,4.0616668 67.5,3.8826421 c 0,-0.4011483 0.75453,-1.182642 1.141839,-1.182642 0.831636,0 0.909219,0.8192772 0.214956,2.2699437 -0.58092,1.213839 -4.584675,11.1773562 -7.345686,18.2800572 -1.27788,3.287354 -1.173642,4.024158 0.697458,4.929943 2.413149,1.168184 4.134144,0.500283 6.64119,-2.577379 1.348806,-1.6558 3.745284,-5.977248 3.754836,-6.770905 0.0073,-0.602733 0.389808,-1.03344 1.120407,-1.261441 1.057032,-0.329874 0.889245,0.532616 -1.42224,7.310769 -1.149933,3.372043 -2.033256,6.188519 -1.962939,6.258833 0.144279,0.144282 1.357323,-1.75802 1.359057,-2.13128 0.0039,-0.835559 3.981447,-8.875171 4.486923,-9.06914 1.175562,-0.451106 1.620582,3.327836 0.88758,7.537032 -0.519591,2.983714 -0.303816,3.234718 1.124037,1.307548 1.580511,-2.133212 3.318114,-5.845827 3.914604,-8.364055 0.575466,-2.42949 0.770364,-2.843961 1.395132,-2.966923 0.707583,-0.139259 0.644208,1.238048 -0.257154,5.58873 -1.241748,5.993649 -0.966834,7.585298 1.209606,7.003229 1.574262,-0.421024 3.602673,-3.986307 5.558796,-9.770544 0.639474,-1.890918 0.935721,-2.39578 1.452066,-2.474579 0.900012,-0.137352 1.101843,0.61309 0.522108,1.941294 -0.778365,1.783287 -1.996932,6.919883 -2.193624,9.246738 -0.220041,2.603093 0.14649,2.953292 2.883813,2.755292 3.496329,-0.252903 4.34256,-1.11432 5.396334,-5.493162 0.769401,-3.197153 1.879251,-5.153365 3.243611,-5.717159 0.87576,-0.361888 1.00208,-0.347066 1.26741,0.148704 0.63556,1.187547 -1.29228,6.178187 -3.480479,9.01002 -1.741557,2.253815 -1.419603,2.86235 1.503549,2.841914 2.32744,-0.01626 2.37837,-0.03308 3.36605,-1.110831 1.06543,-1.162584 1.6991,-0.994755 0.89244,0.236367 -0.87095,1.329246 -1.93651,1.779957 -4.65796,1.970238 -3.05401,0.213531 -3.197854,0.175083 -3.415459,-0.912948 l -0.169068,-0.84534 -1.711164,0.564519 c -4.561728,1.504923 -6.781995,0.087 -6.322842,-4.037932 l 0.172263,-1.547552 -0.562152,1.05 c -1.703694,3.182205 -4.726818,4.27848 -6.608763,2.396535 -0.501516,-0.501518 -0.563853,-0.865155 -0.422973,-2.467371 0.132966,-1.512177 0.09749,-1.761989 -0.181632,-1.279164 -1.237716,2.140975 -4.700337,7.035432 -4.981941,7.042032 -0.54597,0.01281 -0.677418,-1.063614 -0.393903,-3.225642 1.074918,-8.19707 0.874107,-9.839153 -0.750051,-6.133325 -2.474679,5.646457 -4.429086,9.782411 -5.032449,10.649765 C 68.154138,37.297093 67.2,37.861048 67.2,36.439447 Z M 52.56273,31.445764 c 3.576591,-1.071573 5.331546,-5.945763 2.140773,-5.945763 -0.386925,0 -0.703503,-0.135 -0.703503,-0.3 0,-0.506091 -2.497182,-0.332731 -3.60468,0.250244 -1.295571,0.681974 -2.99532,3.115318 -2.99532,4.28807 0,1.684283 2.490678,2.508014 5.16273,1.707449 z m 47.68124,-6.449436 c 0.46548,-1.103316 0.7993,-2.053058 0.74182,-2.11054 C 100.68583,22.585827 99,26.15304 99,27.087719 c 0,0.584272 0.396039,-0.08156 1.24397,-2.091391 z m -62.438672,9.128673 c 0.003,-0.37125 0.412617,-1.9575 0.910452,-3.525 1.339452,-4.217475 2.109159,-7.904766 2.301417,-11.025001 0.170037,-2.75959 0.239559,-2.966629 0.854715,-2.545406 0.840372,0.575437 0.481626,4.337609 -0.936438,9.820407 -0.426753,1.65 -0.852609,3.3375 -0.946347,3.75 l -0.170433,0.75 0.640668,-0.797319 c 0.352368,-0.438525 0.644301,-0.978525 0.648738,-1.2 0.01152,-0.574253 1.773909,-2.606495 1.78386,-2.056987 0.0074,0.40982 -1.435785,3.558811 -1.789374,3.904306 -0.08443,0.0825 -0.338256,0.508908 -0.564051,0.947574 -0.529089,1.027893 -2.012244,2.652426 -2.421594,2.652426 -0.1743,0 -0.314526,-0.30375 -0.311613,-0.675 z M 4.1000001,32.5 C 3.681429,32.081431 3.9254679,31.500001 4.5197223,31.500001 c 0.772461,0 1.6630332,-0.459828 2.8450686,-1.468995 0.5031348,-0.429553 1.5156348,-1.251248 2.25,-1.825989 3.4545201,-2.703635 6.1548901,-5.652692 5.7602091,-6.29069 -0.860221,-1.390542 -0.327338,-2.274157 1.305176,-2.164213 0.907853,0.06114 1.033532,-0.07448 2.65769,-2.867969 0.937626,-1.61268 1.901484,-3.269645 2.141906,-3.682145 0.240422,-0.4125 0.840271,-1.52625 1.332998,-2.475 0.925865,-1.7827603 1.868044,-2.2882012 2.21684,-1.1892436 0.09352,0.2946657 -0.351735,2.4884156 -0.989462,4.8750006 -1.788601,6.693528 -1.792921,6.12609 0.05329,6.999486 2.500581,1.182965 2.764189,1.626734 2.712343,4.566079 -0.0878,4.977796 -2.577558,7.470595 -5.812929,5.820031 -1.705008,-0.869829 -1.732336,-1.468548 -0.413134,-9.051014 0.187495,-1.077681 0.16606,-1.109563 -0.877662,-1.305367 -1.438496,-0.269863 -1.295894,-0.367733 -4.167226,2.860029 -1.394407,1.5675 -3.637683,3.654137 -4.985056,4.636972 C 9.2023968,29.919808 8.1,30.831058 8.1,30.961975 c 0,0.130914 -0.19125,0.238026 -0.4250001,0.238026 -0.2337498,0 -0.4699998,0.10125 -0.525,0.225 C 6.8376084,32.127883 4.538295,32.938297 4.1000001,32.5 Z M 23.866401,31.02211 c 1.551687,-0.736323 2.246314,-2.464731 1.978139,-4.922109 -0.257156,-2.356417 -0.322361,-2.471491 -1.85228,-3.26893 -2.017036,-1.051337 -2.10368,-0.944964 -2.844731,3.492518 -0.569495,3.410192 -0.452493,4.472453 0.536446,4.870385 0.931802,0.37494 1.049689,0.365655 2.182426,-0.171864 z M 21.483598,19.245 c 0.09898,-0.43725 0.421876,-1.77375 0.717541,-2.97 0.295664,-1.19625 0.50001,-2.175 0.454101,-2.175 -0.100114,0 -2.564386,3.768542 -3.087043,4.72093 -0.563911,1.02756 -0.456518,1.21907 0.683617,1.21907 0.892536,0 1.079067,-0.120388 1.231784,-0.795 z m 10.939943,0.658132 C 31.22943,15.602736 33.983982,10.47965 38.7168,8.198549 43.501737,5.8923262 50.85,4.6516582 50.85,6.1500001 c 0,0.5293555 -0.264918,0.6229306 -2.25,0.7947529 -9.687381,0.8385093 -15.421053,5.128164 -15.464649,11.569898 -0.0171,2.527875 -0.262509,3.00656 -0.71181,1.388481 z M 100.37582,8.7417857 c -0.0991,-0.1602897 -0.0442,-0.649053 0.12203,-1.0861407 0.16618,-0.4370874 0.30625,-1.4271661 0.31127,-2.2001749 0.0139,-2.145255 0.62603,-0.7915704 0.68992,1.5257632 0.0415,1.5059409 -0.0412,1.867455 -0.44607,1.9502967 -0.27336,0.05593 -0.57808,-0.029454 -0.67715,-0.1897443 z"
     id="path3338"
     inkscape:connector-curvature="0" />
</svg>
